    <?xml version="1.0" standalone="no"?>
    <!DOCTYPE svg PUBLIC "-//W3C//DTD SVG 20010904//EN"
    "http://www.w3.org/TR/2001/REC-SVG-20010904/DTD/svg10.dtd">
    <svg version="1.0" xmlns="http://www.w3.org/2000/svg"
    width="560.000000pt" height="560.000000pt" viewBox="0 0 560.000000 560.000000"
    preserveAspectRatio="xMidYMid meet">
    <metadata>
    Created by potrace 1.16, written by Peter Selinger 2001-2019
    </metadata>
    <g transform="translate(0.000000,560.000000) scale(0.100000,-0.100000)"
    fill="#000000" stroke="none">
    <path d="M2840 5220 c-25 -5 -54 -6 -65 -4 -11 2 -14 1 -6 -2 9 -5 3 -11 -19
    -20 -17 -8 -36 -12 -40 -9 -4 3 -10 -1 -13 -9 -3 -8 -18 -20 -34 -28 -15 -8
    -72 -38 -125 -66 -54 -29 -107 -52 -118 -52 -11 0 -37 -9 -57 -20 -21 -11 -43
    -20 -50 -20 -7 0 -13 -4 -13 -8 0 -5 -16 -16 -35 -25 -40 -19 -64 -52 -70 -96
    -2 -17 -11 -38 -19 -47 -19 -19 -20 -31 -4 -36 8 -3 5 -16 -10 -42 -12 -20
    -22 -45 -22 -55 0 -9 -4 -21 -9 -26 -5 -6 -18 -37 -30 -70 l-22 -60 23 25 c13
    14 20 21 17 15 -16 -26 -16 -59 -1 -93 19 -45 21 -54 10 -68 -4 -6 -1 -33 7
    -59 7 -26 14 -51 13 -54 -2 -19 3 -24 11 -12 7 11 11 5 16 -22 4 -19 4 -41 -1
    -48 -4 -8 -3 -10 4 -5 8 5 12 0 12 -13 0 -21 15 -37 23 -24 2 5 2 2 0 -5 -1
    -7 3 -23 11 -35 19 -30 48 -151 49 -206 0 -34 2 -40 8 -23 11 28 19 29 12 1
    -3 -12 -1 -24 5 -28 6 -4 12 -21 14 -39 1 -18 6 -32 10 -32 4 0 8 -24 8 -52 1
    -54 27 -180 30 -143 1 11 3 29 5 40 3 19 8 84 23 323 7 98 9 105 36 129 27 23
    34 24 130 21 95 -3 101 -2 101 17 0 46 -158 82 -212 49 -12 -8 -25 -14 -28
    -14 -10 0 -5 199 6 250 13 60 60 118 129 158 25 14 47 29 50 32 26 33 320 50
    478 29 50 -7 92 -16 92 -21 0 -4 18 -8 40 -8 22 0 56 -7 76 -15 19 -8 41 -12
    49 -8 9 3 22 0 30 -7 8 -7 15 -9 15 -4 0 5 7 0 15 -10 14 -18 15 -18 15 -2 0
    15 2 16 15 2 8 -8 15 -21 15 -28 0 -10 3 -9 10 2 7 12 10 11 16 -5 4 -11 12
    -24 18 -28 8 -6 7 -10 -2 -14 -6 -2 -10 -8 -7 -13 7 -12 -27 -104 -43 -116 -8
    -6 -16 -20 -17 -30 -1 -10 -10 -45 -20 -76 -23 -71 -14 -121 45 -242 28 -59
    42 -103 50 -165 6 -46 9 -89 6 -97 -8 -21 12 -127 26 -135 9 -6 8 -12 -5 -27
    -28 -31 -21 -50 22 -63 22 -6 46 -9 54 -6 19 7 50 101 42 126 -5 15 1 24 24
    35 17 9 31 16 33 16 2 0 12 -16 23 -36 16 -29 17 -40 8 -65 -18 -47 11 -37 35
    12 16 31 18 47 11 66 -5 13 -9 37 -9 52 0 32 45 99 53 79 3 -8 6 -5 6 7 1 13
    4 16 12 8 13 -13 15 -62 6 -133 l-7 -55 25 60 c13 34 24 82 25 110 1 48 1 49
    15 25 13 -24 14 -24 20 -5 4 11 21 54 38 95 31 74 32 78 31 235 0 158 0 161
    -33 240 -18 44 -37 84 -42 89 -5 6 -9 16 -9 24 0 7 -16 30 -35 50 -19 20 -35
    40 -35 45 0 4 -9 7 -21 7 -11 0 -17 5 -14 10 3 6 2 10 -2 10 -5 0 -14 18 -19
    40 -6 22 -7 37 -3 34 5 -3 8 21 7 53 -1 35 -3 45 -5 26 -2 -18 -8 -33 -12 -33
    -9 0 -41 66 -44 91 -2 9 -11 28 -21 43 -9 15 -19 39 -20 52 -2 13 -12 34 -24
    45 -12 11 -22 23 -22 28 0 4 -23 22 -51 39 -33 21 -48 36 -43 44 4 7 4 10 -1
    6 -4 -4 -24 1 -44 11 -37 20 -70 34 -84 35 -4 1 -11 6 -15 11 -14 21 -232 63
    -232 44 0 -4 -8 -9 -17 -11 -25 -5 -94 13 -88 22 8 13 -32 22 -56 15 -12 -4
    -36 -8 -53 -10 -17 -1 -42 -6 -56 -10 l-25 -6 25 15 c27 17 18 18 -50 6z"/>
    <path d="M3107 4183 c5 -13 3 -15 -13 -9 -10 4 -49 10 -86 12 -59 3 -70 1 -88
    -18 -45 -49 -19 -60 110 -46 69 7 98 7 115 -2 12 -6 36 -10 52 -9 33 4 83 -18
    83 -35 0 -15 52 -38 62 -28 5 5 -4 23 -19 40 -20 23 -34 31 -50 28 -13 -3 -25
    -1 -28 4 -3 5 4 7 16 5 18 -4 19 -2 8 11 -13 16 -69 48 -69 40 0 -3 -10 -2
    -22 3 -13 4 -35 11 -50 15 -23 5 -26 3 -21 -11z"/>
    <path d="M2555 4064 l-40 -12 35 -2 c34 -1 34 -1 -18 -19 -28 -10 -61 -26 -71
    -35 -15 -13 -20 -14 -24 -4 -3 7 -6 -6 -6 -29 l-1 -42 33 6 c36 6 61 23 34 23
    -22 0 -22 23 1 43 25 23 29 22 36 -13 5 -30 6 -30 77 -30 69 0 71 1 64 23 -4
    12 -8 32 -8 44 -2 22 -25 44 -57 55 -8 2 -33 -1 -55 -8z"/>
    <path d="M3060 4030 c-51 -7 -77 -19 -104 -49 -10 -11 -23 -18 -27 -15 -5 3
    -6 -2 -3 -10 4 -11 12 -13 29 -6 13 5 26 6 29 3 3 -4 6 0 6 9 0 24 33 47 68
    46 32 -1 47 -18 15 -18 -14 0 -12 -4 7 -25 23 -24 68 -36 55 -15 -8 13 31 5
    89 -16 43 -16 55 -12 36 11 -7 8 -9 15 -5 15 12 0 -15 29 -49 52 l-31 22 25
    -29 25 -28 -25 16 c-49 32 -94 43 -140 37z"/>
    <path d="M2787 3614 c-11 -11 -8 -46 3 -39 14 8 13 -8 -1 -22 -8 -8 -5 -13 10
    -18 17 -5 19 -10 11 -31 -7 -19 -6 -31 6 -50 18 -26 33 -32 108 -38 57 -6 61
    -8 47 -35 -10 -18 -7 -20 36 -26 96 -12 96 -12 108 -77 3 -13 13 -29 24 -36
    18 -13 18 -14 0 -52 -13 -27 -26 -40 -39 -40 -11 0 -20 -5 -20 -11 0 -18 -35
    -56 -48 -51 -6 2 -12 -1 -12 -8 0 -6 -4 -8 -10 -5 -5 3 -10 1 -10 -4 0 -6 -5
    -11 -11 -11 -6 0 -19 -10 -30 -22 -10 -13 -18 -18 -19 -11 0 14 -30 6 -30 -9
    0 -5 -7 -17 -16 -26 -15 -15 -16 -14 -9 7 5 16 4 21 -3 17 -6 -4 -27 0 -46 8
    -25 10 -38 11 -42 4 -4 -7 -10 -6 -15 4 -12 21 -64 11 -77 -15 -6 -12 -11 -16
    -11 -9 -1 10 -6 10 -21 2 -14 -8 -20 -8 -20 1 0 6 -10 19 -21 28 -12 10 -29
    37 -39 62 -9 24 -21 43 -27 42 -6 -1 -9 6 -6 17 6 23 -5 25 -30 6 -12 -9 -14
    -16 -8 -21 6 -3 8 -17 5 -31 -3 -13 -2 -30 4 -37 14 -17 18 -49 8 -65 -5 -9 0
    -22 14 -37 14 -15 18 -25 11 -30 -6 -3 -11 -14 -10 -23 0 -14 2 -13 8 3 7 17
    9 15 16 -14 12 -54 93 -124 204 -176 18 -9 45 -27 59 -40 14 -13 30 -21 34
    -18 5 3 17 -2 26 -10 10 -9 30 -14 46 -13 29 4 29 3 9 -13 -11 -9 -24 -29 -27
    -46 l-7 -30 21 23 c11 12 25 22 30 22 5 0 32 20 60 45 27 24 59 49 70 55 11 6
    20 17 20 25 0 8 6 12 13 9 12 -4 93 70 90 84 0 4 3 6 9 4 15 -4 98 69 91 81
    -3 5 -2 7 3 4 6 -3 16 -1 24 4 13 8 12 11 -2 20 -24 13 -23 27 3 48 l21 17
    -23 1 c-19 2 -20 0 -9 -7 9 -6 10 -10 3 -10 -16 0 -26 17 -14 25 12 7 3 35
    -12 35 -6 0 -19 7 -29 16 -16 15 -18 15 -24 1 -3 -9 -12 -13 -20 -10 -8 3 -11
    9 -8 14 3 5 0 9 -6 9 -7 0 -8 6 0 19 14 26 13 28 -10 34 -15 4 -20 14 -21 44
    l-2 38 -8 -40 -7 -40 1 47 c1 25 -1 44 -5 42 -12 -8 -21 45 -16 97 4 37 2 52
    -8 56 -8 3 -14 10 -14 15 0 6 -11 21 -24 33 -20 18 -36 23 -90 23 -44 0 -75 6
    -91 16 -13 9 -31 16 -40 16 -8 0 -15 7 -15 15 0 8 -6 15 -13 15 -7 0 -18 9
    -25 20 -11 19 -10 20 27 20 69 0 62 25 -14 49 -22 7 -45 14 -51 17 -5 2 -13 1
    -17 -2z"/>
    <path d="M3805 3469 c-16 -39 -43 -82 -58 -95 -55 -46 -110 -23 -133 55 l-11
    36 -13 -45 c-18 -65 -18 -105 0 -106 33 -4 58 -17 54 -28 -2 -6 -1 -30 4 -51
    7 -34 4 -45 -15 -74 -12 -18 -20 -37 -17 -42 3 -5 -23 -35 -58 -66 -63 -57
    -234 -229 -253 -255 -5 -7 -28 -36 -50 -63 -22 -28 -31 -43 -20 -35 11 8 4 -4
    -16 -25 -20 -22 -44 -53 -53 -70 -19 -33 -33 -54 -132 -185 -76 -102 -60 -96
    -179 -66 -33 8 -81 16 -107 18 -26 3 -51 8 -55 13 -5 4 -2 5 5 1 18 -10 15 2
    -9 35 -17 24 -25 28 -47 23 -15 -4 -34 -12 -42 -18 -17 -12 -19 -54 -3 -65 5
    -3 16 -20 23 -38 8 -17 19 -29 25 -26 5 4 7 3 3 -2 -4 -4 -3 -16 2 -26 7 -12
    7 -20 0 -24 -5 -3 -10 -2 -10 4 0 7 -60 117 -77 140 -6 9 -85 -52 -138 -106
    -70 -72 -123 -175 -130 -256 -5 -58 -21 -94 -90 -202 -53 -82 -74 -130 -100
    -226 -22 -83 -28 -94 -71 -132 -108 -95 -162 -202 -183 -360 -9 -67 -16 -85
    -51 -131 -32 -42 -56 -61 -124 -95 -59 -30 -101 -59 -139 -99 -29 -31 -72 -72
    -95 -90 -49 -39 -124 -160 -184 -297 -40 -94 -43 -105 -39 -175 5 -118 5 -142
    -4 -183 l-8 -37 540 0 c461 0 547 2 592 16 48 14 55 14 70 0 16 -14 135 -16
    1144 -16 l1127 0 5 23 c2 12 9 50 15 83 6 34 26 129 46 210 55 235 102 494
    125 684 34 290 38 321 44 340 8 26 -22 386 -40 472 -28 131 -56 239 -77 297
    -29 79 -89 205 -102 213 -6 4 -12 12 -12 18 -1 5 -2 15 -3 21 0 5 -5 7 -11 4
    -5 -3 -8 0 -5 7 13 34 -201 248 -310 309 -30 17 -55 35 -55 39 0 5 -24 29 -54
    55 -41 35 -79 55 -152 81 -105 37 -134 56 -134 87 0 11 -7 28 -15 37 -9 9 -37
    67 -64 128 -26 62 -54 118 -61 127 -10 12 -8 16 14 25 36 13 40 30 23 99 -10
    38 -13 81 -10 120 3 34 2 61 -3 61 -5 0 -22 -32 -39 -71z"/>
    <path d="M2676 3501 c-16 -17 -32 -29 -35 -29 -3 1 -17 -3 -31 -9 -41 -19 -65
    -26 -72 -25 -5 1 -8 -4 -8 -10 0 -7 -5 -5 -11 5 -5 9 -7 22 -4 27 3 6 2 10 -4
    10 -6 0 -12 -15 -15 -32 -7 -40 -13 -185 -8 -169 6 19 22 12 33 -16 7 -18 6
    -28 -1 -33 -6 -4 -8 -14 -4 -23 4 -13 9 -14 19 -4 7 6 11 16 10 22 -13 42 -15
    66 -5 60 5 -3 10 -2 10 3 0 6 14 26 32 46 30 34 34 35 85 31 31 -3 53 -1 53 5
    0 6 -10 10 -22 10 -29 1 -65 27 -52 38 5 5 28 14 50 20 60 17 72 36 47 69 -27
    37 -35 37 -67 4z"/>
    </g>
    </svg>
